<svg width="50" height="46" viewBox="0 0 50 46" fill="none" xmlns="http://www.w3.org/2000/svg">
<path fill-rule="evenodd" clip-rule="evenodd" d="M10.6909 4.0888C8.9026 5.22566 7.28547 6.5698 5.88166 8.08289C11.6183 7.59868 18.9065 8.38933 27.368 12.2358C36.4037 16.3432 43.6797 16.482 48.7435 15.594C48.284 14.3293 47.7055 13.1137 47.0204 11.9582C41.2237 12.514 33.7925 11.7783 25.132 7.84149C19.6325 5.34152 14.7847 4.3117 10.6909 4.0888ZM43.6342 7.57632C39.0566 2.92636 32.4042 0 25 0C22.8256 0 20.7158 0.252414 18.7046 0.726738C21.4286 1.40248 24.3224 2.39108 27.368 3.77559C33.7087 6.65793 39.183 7.58599 43.6342 7.57632ZM49.8261 20.0334C43.7086 21.1317 35.261 20.9061 25.132 16.3017C15.6625 11.997 8.12555 12.0512 3.04238 13.0783C2.78 13.1312 2.5238 13.1869 2.27379 13.2449C1.60828 14.5608 1.07704 15.9445 0.695878 17.3814C1.10298 17.2826 1.52366 17.1886 1.9577 17.1008C8.12447 15.8549 16.8376 15.909 27.368 20.696C36.8376 25.0006 44.3745 24.9464 49.4577 23.9194C49.6319 23.8843 49.8035 23.8479 49.9723 23.8104C49.9908 23.4521 50 23.0915 50 22.729C50 21.817 49.941 20.9175 49.8261 20.0334ZM49.156 28.6071C43.0979 29.57 34.8962 29.2004 25.132 24.7619C15.6625 20.4572 8.12555 20.5114 3.04238 21.5384C1.91406 21.7663 0.89905 22.0439 0.0036625 22.337C0.00122125 22.4674 0 22.5981 0 22.729C0 35.2819 11.1929 45.458 25 45.458C36.5714 45.458 46.3066 38.3108 49.156 28.6071Z" fill="url(#paint0_linear_427_2)"/>
<defs>
<linearGradient id="paint0_linear_427_2" x1="25" y1="0" x2="25" y2="45.458" gradientUnits="userSpaceOnUse">
<stop stop-color="#BC6FF1"/>
<stop offset="1" stop-color="#FF4646"/>
</linearGradient>
</defs>
</svg>
